<svg class="icon" viewBox="0 0 1024 1024" xmlns="http://www.w3.org/2000/svg" width="200" height="200"><defs><style/></defs><path d="M136.288 750.944A136.48 136.48 0 000 887.008a136 136 0 00136.288 135.808 136 136 0 00136.48-135.808 136.48 136.48 0 00-136.48-136.064zM.16 347.936v196.256c127.776 0 247.968 49.984 338.464 140.512A476.704 476.704 0 01478.912 1024h197.12c0-372.832-303.296-676.064-675.872-676.064zM.384 0v196.352c455.776 0 826.752 371.328 826.752 827.648H1024C1024 459.52 564.736 0 .384 0z" fill="#1296db"/></svg>